<?xml version="1.0" encoding="UTF-8" standalone="no"?>
<svg
   xmlns:dc="http://purl.org/dc/elements/1.1/"
   xmlns:cc="http://creativecommons.org/ns#"
   xmlns:rdf="http://www.w3.org/1999/02/22-rdf-syntax-ns#"
   xmlns:svg="http://www.w3.org/2000/svg"
   xmlns="http://www.w3.org/2000/svg"
   xmlns:sodipodi="http://sodipodi.sourceforge.net/DTD/sodipodi-0.dtd"
   xmlns:inkscape="http://www.inkscape.org/namespaces/inkscape"
   version="1.1"
   x="0px"
   y="0px"
   viewBox="0 0 512 640"
   enable-background="new 0 0 512 512"
   xml:space="preserve"
   id="svg2"
   inkscape:version="0.91 r13725"
   sodipodi:docname="envelope.svg"><metadata
     id="metadata22"><rdf:RDF><cc:Work
         rdf:about=""><dc:format>image/svg+xml</dc:format><dc:type
           rdf:resource="http://purl.org/dc/dcmitype/StillImage" /></cc:Work></rdf:RDF></metadata><defs
     id="defs20" /><sodipodi:namedview
     pagecolor="#ffffff"
     bordercolor="#666666"
     borderopacity="1"
     objecttolerance="10"
     gridtolerance="10"
     guidetolerance="10"
     inkscape:pageopacity="0"
     inkscape:pageshadow="2"
     inkscape:window-width="852"
     inkscape:window-height="480"
     id="namedview18"
     showgrid="false"
     inkscape:zoom="0.36875"
     inkscape:cx="256"
     inkscape:cy="320"
     inkscape:window-x="0"
     inkscape:window-y="0"
     inkscape:window-maximized="0"
     inkscape:current-layer="svg2" /><g
     id="g4"><path
       d="M181.336,352h-128c-5.891,0-10.664,4.781-10.664,10.656c0,5.906,4.773,10.688,10.664,10.688h128   c5.891,0,10.664-4.781,10.664-10.688C192,356.781,187.227,352,181.336,352z"
       id="path6" /><path
       d="M53.336,330.656H96c5.891,0,10.672-4.766,10.672-10.656S101.891,309.344,96,309.344H53.336   c-5.891,0-10.664,4.766-10.664,10.656S47.445,330.656,53.336,330.656z"
       id="path8" /><path
       d="M367.062,324.781l-19.625-32.719l-48.766,81.281h40.641h56.875h73.156l-65.031-113.789L367.062,324.781z M336.344,352   l11.094-18.469L354.922,346l-3.422,6H336.344z M376.062,352l28.25-49.438L432.578,352H376.062z"
       id="path10" /><path
       d="M501.344,96H10.672C4.781,96,0,100.773,0,106.664v298.68C0,411.219,4.781,416,10.672,416h490.672   c5.875,0,10.656-4.781,10.656-10.656v-298.68C512,100.773,507.219,96,501.344,96z M469.734,117.336L259.727,242.047   c-1.672,0.992-5.781,0.992-7.453,0L42.188,117.336H469.734z M21.336,394.656V129.766l220.047,130.625   c4.172,2.477,9.391,3.711,14.617,3.711s10.453-1.234,14.617-3.711l220.055-130.68v264.945H21.336z"
       id="path12" /></g></svg>