<?xml version="1.0" encoding="UTF-8" standalone="no"?>
<svg
   xmlns:dc="http://purl.org/dc/elements/1.1/"
   xmlns:cc="http://creativecommons.org/ns#"
   xmlns:rdf="http://www.w3.org/1999/02/22-rdf-syntax-ns#"
   xmlns:svg="http://www.w3.org/2000/svg"
   xmlns="http://www.w3.org/2000/svg"
   xmlns:sodipodi="http://sodipodi.sourceforge.net/DTD/sodipodi-0.dtd"
   xmlns:inkscape="http://www.inkscape.org/namespaces/inkscape"
   version="1.1"
   x="0px"
   y="0px"
   viewBox="0 0 48.048248 48"
   enable-background="new 0 0 48 48"
   xml:space="preserve"
   id="svg2"
   inkscape:version="0.91 r13725"
   sodipodi:docname="map-marker.svg"
   width="48.048248"
   height="48"><metadata
     id="metadata20"><rdf:RDF><cc:Work
         rdf:about=""><dc:format>image/svg+xml</dc:format><dc:type
           rdf:resource="http://purl.org/dc/dcmitype/StillImage" /><dc:title /></cc:Work></rdf:RDF></metadata><defs
     id="defs18" /><sodipodi:namedview
     pagecolor="#ffffff"
     bordercolor="#666666"
     borderopacity="1"
     objecttolerance="10"
     gridtolerance="10"
     guidetolerance="10"
     inkscape:pageopacity="0"
     inkscape:pageshadow="2"
     inkscape:window-width="1920"
     inkscape:window-height="1017"
     id="namedview16"
     showgrid="false"
     inkscape:zoom="15.733333"
     inkscape:cx="-0.43199457"
     inkscape:cy="25.586374"
     inkscape:window-x="-8"
     inkscape:window-y="-8"
     inkscape:window-maximized="1"
     inkscape:current-layer="svg2"
     fit-margin-top="0"
     fit-margin-left="0"
     fit-margin-right="0"
     fit-margin-bottom="0" /><g
     id="g4"
     transform="translate(0.00901699,0)"
     style="fill:#009688;fill-opacity:1"><path
       d="M 47,48 1,48 C 0.7,48 0.4,47.8 0.2,47.6 0,47.3 -0.1,47 0.1,46.7 L 8.2,22.6 c 0.1,-0.4 0.5,-0.7 0.9,-0.7 l 9,0 c 0.6,0 1,0.4 1,1 0,0.6 -0.4,1 -1,1 l -8.3,0 -7.4,22.1 43.3,0 -6.1,-22.1 -9.6,0 c -0.6,0 -1,-0.4 -1,-1 0,-0.6 0.4,-1 1,-1 l 10.3,0 c 0.4,0 0.8,0.3 1,0.7 L 48,46.7 c 0.1,0.3 0,0.6 -0.2,0.9 C 47.6,47.9 47.3,48 47,48 Z"
       id="path6"
       inkscape:connector-curvature="0"
       style="fill:#009688;fill-opacity:1" /><path
       d="m 24,32.7 c -0.3,0 -0.6,-0.1 -0.8,-0.4 C 22.8,31.7 12.6,18.3 12.6,12 12.6,5.4 17.7,0 24,0 c 6.3,0 11.4,5.4 11.4,12 0,6.3 -10.2,19.7 -10.6,20.3 -0.2,0.3 -0.5,0.4 -0.8,0.4 z M 24,2 c -5.2,0 -9.4,4.5 -9.4,10 0,4.3 6.2,13.6 9.4,18 3.2,-4.4 9.4,-13.8 9.4,-18 C 33.4,6.4 29.3,2 24,2 Z"
       id="path8"
       inkscape:connector-curvature="0"
       style="fill:#009688;fill-opacity:1" /><path
       d="m 24,18.3 c -3.3,0 -6,-2.8 -6,-6.3 0,-3.5 2.7,-6.3 6,-6.3 3.3,0 6,2.8 6,6.3 0,3.5 -2.7,6.3 -6,6.3 z M 24,7.7 c -2.2,0 -4,1.9 -4,4.3 0,2.4 1.8,4.3 4,4.3 2.2,0 4,-1.9 4,-4.3 0,-2.4 -1.8,-4.3 -4,-4.3 z"
       id="path10"
       inkscape:connector-curvature="0"
       style="fill:#009688;fill-opacity:1" /></g></svg>