<?xml version="1.0" encoding="UTF-8" standalone="no"?>
<svg
   xmlns:dc="http://purl.org/dc/elements/1.1/"
   xmlns:cc="http://creativecommons.org/ns#"
   xmlns:rdf="http://www.w3.org/1999/02/22-rdf-syntax-ns#"
   xmlns:svg="http://www.w3.org/2000/svg"
   xmlns="http://www.w3.org/2000/svg"
   xmlns:sodipodi="http://sodipodi.sourceforge.net/DTD/sodipodi-0.dtd"
   xmlns:inkscape="http://www.inkscape.org/namespaces/inkscape"
   version="1.1"
   x="0px"
   y="0px"
   viewBox="0 0 96 96"
   xml:space="preserve"
   id="svg2"
   inkscape:version="0.91 r13725"
   sodipodi:docname="parking2.svg"
   width="96"
   height="96"><metadata
     id="metadata18"><rdf:RDF><cc:Work
         rdf:about=""><dc:format>image/svg+xml</dc:format><dc:type
           rdf:resource="http://purl.org/dc/dcmitype/StillImage" /><dc:title></dc:title></cc:Work></rdf:RDF></metadata><defs
     id="defs16" /><sodipodi:namedview
     pagecolor="#ffffff"
     bordercolor="#666666"
     borderopacity="1"
     objecttolerance="10"
     gridtolerance="10"
     guidetolerance="10"
     inkscape:pageopacity="0"
     inkscape:pageshadow="2"
     inkscape:window-width="852"
     inkscape:window-height="480"
     id="namedview14"
     showgrid="false"
     fit-margin-top="0"
     fit-margin-left="0"
     fit-margin-right="0"
     fit-margin-bottom="0"
     inkscape:zoom="1.9666667"
     inkscape:cx="48"
     inkscape:cy="36"
     inkscape:window-x="0"
     inkscape:window-y="0"
     inkscape:window-maximized="0"
     inkscape:current-layer="svg2" /><path
     d="m 51,30 -9,0 0,18 9,0 c 5,0 9,-4 9,-9 0,-5 -4,-9 -9,-9 z m 0,15 -6,0 0,-12 6,0 c 3.3,0 6,2.7 6,6 0,3.3 -2.7,6 -6,6 z"
     id="path4"
     inkscape:connector-curvature="0" /><path
     d="M 84,0 12,0 C 5.4,0 0,5.4 0,12 l 0,24 0,24 0,24 c 0,6.6 5.4,12 12,12 l 72,0 c 6.6,0 12,-5.4 12,-12 L 96,60 96,36 96,12 C 96,5.4 90.6,0 84,0 Z m 9,36 0,24 0,24 c 0,5 -4,9 -9,9 L 12,93 C 7,93 3,89 3,84 L 3,60 3,36 3,12 C 3,7 7,3 12,3 l 72,0 c 5,0 9,4 9,9 l 0,24 z"
     id="path6"
     inkscape:connector-curvature="0" /><path
     d="M 54,21 43.5,21 39,21 31.5,21 C 30.7,21 30,21.7 30,22.5 l 0,51 c 0,0.8 0.7,1.5 1.5,1.5 l 12,0 C 44.3,75 45,74.3 45,73.5 L 45,57 54,57 C 63.9,57 72,48.9 72,39 72,29.1 63.9,21 54,21 Z m 0,33 -12,0 0,18 -9,0 0,-48 21,0 c 8.3,0 15,6.7 15,15 0,8.3 -6.7,15 -15,15 z"
     id="path8"
     inkscape:connector-curvature="0" /></svg>