<?xml version="1.0" encoding="UTF-8" standalone="no"?>
<svg
   xmlns:dc="http://purl.org/dc/elements/1.1/"
   xmlns:cc="http://creativecommons.org/ns#"
   xmlns:rdf="http://www.w3.org/1999/02/22-rdf-syntax-ns#"
   xmlns:svg="http://www.w3.org/2000/svg"
   xmlns="http://www.w3.org/2000/svg"
   xmlns:sodipodi="http://sodipodi.sourceforge.net/DTD/sodipodi-0.dtd"
   xmlns:inkscape="http://www.inkscape.org/namespaces/inkscape"
   version="1.1"
   x="0px"
   y="0px"
   viewBox="0 0 60.139 72.004997"
   enable-background="new 0 0 100 100"
   xml:space="preserve"
   id="svg2"
   inkscape:version="0.91 r13725"
   sodipodi:docname="parking.svg"
   width="60.139"
   height="72.004997"><metadata
     id="metadata18"><rdf:RDF><cc:Work
         rdf:about=""><dc:format>image/svg+xml</dc:format><dc:type
           rdf:resource="http://purl.org/dc/dcmitype/StillImage" /><dc:title></dc:title></cc:Work></rdf:RDF></metadata><defs
     id="defs16" /><sodipodi:namedview
     pagecolor="#ffffff"
     bordercolor="#666666"
     borderopacity="1"
     objecttolerance="10"
     gridtolerance="10"
     guidetolerance="10"
     inkscape:pageopacity="0"
     inkscape:pageshadow="2"
     inkscape:window-width="1920"
     inkscape:window-height="1017"
     id="namedview14"
     showgrid="false"
     inkscape:zoom="1.888"
     inkscape:cx="-92.016864"
     inkscape:cy="23.503"
     inkscape:window-x="-8"
     inkscape:window-y="-8"
     inkscape:window-maximized="1"
     inkscape:current-layer="svg2"
     fit-margin-top="0"
     fit-margin-left="0"
     fit-margin-right="0"
     fit-margin-bottom="0" /><g
     id="g4"
     transform="translate(-19.93,-13.998)"><path
       d="m 52.189,34.801 -8.646,0 0,14.351 8.646,0 c 2.441,0 4.293,-0.665 5.555,-1.997 1.26,-1.33 1.891,-3.026 1.891,-5.088 0,-2.102 -0.625,-3.838 -1.875,-5.209 -1.252,-1.372 -3.11,-2.057 -5.571,-2.057 z"
       id="path6"
       inkscape:connector-curvature="0" /><path
       d="m 76.343,13.998 -52.686,0 c -2.058,0 -3.727,1.668 -3.727,3.727 l 0,64.551 c 0,2.058 1.669,3.727 3.727,3.727 l 52.686,0 c 2.058,0 3.726,-1.669 3.726,-3.727 l 0,-64.551 C 80.068,15.666 78.4,13.998 76.343,13.998 Z M 64.049,52.094 c -2.883,2.542 -6.836,3.812 -11.859,3.812 l -8.646,0 0,15.853 -8.768,0 0,-43.714 17.414,0 c 5.023,0 8.977,1.281 11.859,3.843 2.883,2.562 4.323,5.936 4.323,10.118 0,4.183 -1.44,7.546 -4.323,10.088 z"
       id="path8"
       inkscape:connector-curvature="0" /></g></svg>