<?xml version="1.0" encoding="UTF-8" standalone="no"?>
<!-- Generator: Adobe Illustrator 16.0.0, SVG Export Plug-In . SVG Version: 6.00 Build 0) -->

<svg
   xmlns:dc="http://purl.org/dc/elements/1.1/"
   xmlns:cc="http://creativecommons.org/ns#"
   xmlns:rdf="http://www.w3.org/1999/02/22-rdf-syntax-ns#"
   xmlns:svg="http://www.w3.org/2000/svg"
   xmlns="http://www.w3.org/2000/svg"
   xmlns:sodipodi="http://sodipodi.sourceforge.net/DTD/sodipodi-0.dtd"
   xmlns:inkscape="http://www.inkscape.org/namespaces/inkscape"
   version="1.1"
   id="Layer_1"
   x="0px"
   y="0px"
   width="192.756px"
   height="192.756px"
   viewBox="0 0 192.756 192.756"
   style="enable-background:new 0 0 192.756 192.756;"
   xml:space="preserve"
   inkscape:version="0.91 r13725"
   sodipodi:docname="rei.svg"><metadata
     id="metadata41"><rdf:RDF><cc:Work
         rdf:about=""><dc:format>image/svg+xml</dc:format><dc:type
           rdf:resource="http://purl.org/dc/dcmitype/StillImage" /></cc:Work></rdf:RDF></metadata><defs
     id="defs39" /><sodipodi:namedview
     pagecolor="#ffffff"
     bordercolor="#666666"
     borderopacity="1"
     objecttolerance="10"
     gridtolerance="10"
     guidetolerance="10"
     inkscape:pageopacity="0"
     inkscape:pageshadow="2"
     inkscape:window-width="1920"
     inkscape:window-height="1017"
     id="namedview37"
     showgrid="false"
     inkscape:zoom="2.4486917"
     inkscape:cx="3.6201254"
     inkscape:cy="97.244555"
     inkscape:window-x="-8"
     inkscape:window-y="-8"
     inkscape:window-maximized="1"
     inkscape:current-layer="Layer_1" /><path
     inkscape:connector-curvature="0"
     id="path7"
     d="m 35.205,37.491 -13.716,22.86 7.315,-2.377 -13.35,24.14 8.046,-4.206 -14.082,25.602 9.692,-4.572 -16.276,27.615 78.456,0 0,-9.875 1.829,0 10.424,9.875 20.666,0 -14.996,-14.996 8.412,-8.412 -0.184,-23.957 -23.225,0 -2.56,1.829 0,-6.401 23.957,-23.774 22.859,22.677 4.939,0 20.482,-20.117 20.482,20.3 3.475,0 L 150.051,46.087 128.471,67.85 98.664,37.856 54.407,81.931 40.874,57.607 l 7.132,3.292 -12.801,-23.408 0,0 z m 18.47,45.354 -2.926,2.926 -5.304,-7.681 8.23,4.755 0,0 z m 10.973,8.412 0,30.907 -11.338,-19.75 11.338,-11.157 0,0 z m 25.603,-2.377 0,12.437 -8.961,0 0,-3.842 8.961,-8.595 0,0 z"
     style="clip-rule:evenodd;fill:#000000;fill-rule:evenodd;fill-opacity:1" /><path
     style="clip-rule:evenodd;fill:#000000;fill-rule:evenodd;fill-opacity:1"
     d="m 134.326,90.16 0,6.218 19.02,0 0,11.704 -19.02,0 0,6.035 19.02,0 0,12.619 -36.211,0 0,-47.548 35.844,0 0,0 0,10.972 z"
     id="polygon9" /><path
     style="clip-rule:evenodd;fill:#000000;fill-rule:evenodd;fill-opacity:1"
     d="m 178.4,79.188 -15.91,0 0,47.548 0,0 15.91,0 z"
     id="polygon11" /><path
     inkscape:connector-curvature="0"
     id="path13"
     d="m 182.057,83.394 c 0,2.194 1.83,3.84 3.842,3.84 2.193,0 4.023,-1.646 4.023,-3.84 0,-2.194 -1.83,-3.84 -4.023,-3.84 -2.012,-0.001 -3.842,1.645 -3.842,3.84 l 0,0 z m 0.732,0 c 0,-2.012 1.463,-3.292 3.109,-3.292 1.828,0 3.291,1.28 3.291,3.292 0,1.829 -1.463,3.292 -3.291,3.292 -1.646,-0.001 -3.109,-1.464 -3.109,-3.292 l 0,0 z m 1.647,-2.378 1.828,0 c 1.098,0 1.463,0.549 1.463,1.28 0,0.914 -0.365,1.28 -1.098,1.28 l 1.281,2.011 -0.732,0 -1.279,-2.011 -0.732,0 0,2.011 -0.73,0 0,-4.571 -0.001,0 z m 0.73,2.012 0.732,0 c 0.549,0 1.279,0 1.279,-0.731 0,-0.549 -0.549,-0.731 -1.098,-0.731 l -0.914,0 0,1.462 0.001,0 z"
     style="clip-rule:evenodd;fill:#000000;fill-rule:evenodd;fill-opacity:1" /><path
     style="clip-rule:evenodd;fill:#000000;fill-rule:evenodd;fill-opacity:1"
     d="m 9.052,146.488 -0.914,0 0.914,4.571 2.012,-7.864 4.207,0 2.011,7.864 0.732,-4.571 -0.732,0 0,-3.293 4.938,0 0,3.293 -0.914,0 -2.012,8.412 -4.389,0 -2.012,-7.865 -2.012,7.865 -4.389,0 -2.012,-8.412 -0.914,0 0,-3.293 0,0 5.486,0 z"
     id="polygon15" /><path
     style="clip-rule:evenodd;fill:#000000;fill-rule:evenodd;fill-opacity:1"
     d="m 32.278,146.488 -0.914,0 0.914,4.571 2.012,-7.864 4.206,0 2.012,7.864 0.732,-4.571 -0.732,0 0,-3.293 4.938,0 0,3.293 -0.914,0 -2.012,8.412 -4.39,0 -2.011,-7.865 -2.012,7.865 -4.389,0 -2.011,-8.412 -0.915,0 0,-3.293 0,0 5.486,0 z"
     id="polygon17" /><path
     style="clip-rule:evenodd;fill:#000000;fill-rule:evenodd;fill-opacity:1"
     d="m 55.504,146.488 -0.914,0 0.914,4.571 2.012,-7.864 4.206,0 2.012,7.864 0.731,-4.571 -0.731,0 0,-3.293 4.937,0 0,3.293 -0.914,0 -2.011,8.412 -4.39,0 -2.011,-7.865 -2.012,7.865 -4.389,0 -2.012,-8.412 -0.914,0 0,-3.293 0,0 5.486,0 z"
     id="polygon19" /><path
     style="clip-rule:evenodd;fill:#000000;fill-rule:evenodd;fill-opacity:1"
     d="m 77.267,150.512 -4.389,0 0,4.388 0,0 4.389,0 z"
     id="polygon21" /><path
     inkscape:connector-curvature="0"
     id="path23"
     d="m 87.691,145.391 c 0.183,-0.732 0.548,-2.195 2.743,-2.195 0.549,0 0.732,0 1.098,0 l 0,3.84 c -0.366,0 -0.549,-0.182 -0.915,-0.182 -0.914,0 -1.646,0.365 -2.011,0.73 -0.549,0.549 -0.549,1.098 -0.549,2.195 l 0,1.828 1.28,0 0,3.293 -6.4,0 0,-3.293 0.914,0 0,-5.119 -0.914,0 0,-3.293 4.572,0 0.182,2.196 0,0 z"
     style="clip-rule:evenodd;fill:#000000;fill-rule:evenodd;fill-opacity:1" /><path
     inkscape:connector-curvature="0"
     id="path25"
     d="m 100.676,147.768 c 0,-0.549 0,-1.828 1.463,-1.828 0.365,0 0.914,0.182 1.281,0.914 0,0.182 0,0.549 0,0.914 l -2.744,0 0,0 z m 2.744,3.109 c 0,0.549 -0.184,1.463 -1.465,1.463 -1.463,0 -1.463,-1.463 -1.463,-2.377 l 7.133,0 c 0,-1.098 0.184,-3.842 -1.646,-5.488 -0.73,-0.914 -2.193,-1.463 -4.023,-1.463 -2.377,0 -4.57,1.098 -5.303,3.842 -0.366,0.73 -0.366,1.646 -0.366,2.377 0,4.389 2.743,6.035 5.852,6.035 1.463,0 2.926,-0.365 4.023,-1.463 0.914,-0.914 1.098,-2.012 1.279,-2.926 l -4.021,0 0,0 z"
     style="clip-rule:evenodd;fill:#000000;fill-rule:evenodd;fill-opacity:1" /><path
     inkscape:connector-curvature="0"
     id="path27"
     d="m 117.867,143.195 0,8.412 0.914,0 0,3.293 -6.219,0 0,-3.293 1.098,0 0,-5.119 -1.098,0 0,-3.293 5.305,0 0,0 z m -4.572,-4.205 4.572,0 0,3.107 -4.572,0 0,-3.107 0,0 z"
     style="clip-rule:evenodd;fill:#000000;fill-rule:evenodd;fill-opacity:1" /><path
     style="clip-rule:evenodd;fill:#000000;fill-rule:evenodd;fill-opacity:1"
     d="m 129.021,150.512 -4.388,0 0,4.388 0,0 4.388,0 z"
     id="polygon29" /><path
     inkscape:connector-curvature="0"
     id="path31"
     d="m 145.664,150.512 c 0,0.73 0,1.279 -0.365,2.193 -0.732,1.281 -2.012,2.561 -4.938,2.561 -2.744,0 -3.658,-1.098 -4.023,-1.463 -1.281,-1.279 -1.646,-3.109 -1.646,-4.938 0,-0.732 0,-3.293 1.646,-4.756 0.73,-0.73 1.828,-1.098 2.926,-1.098 0.549,0 1.279,0 1.828,0.367 0.549,0.365 0.914,0.549 1.098,1.096 l 0.184,-1.279 3.109,0 0,4.572 -3.658,0 c 0,-0.549 0,-0.914 -0.549,-1.463 -0.184,-0.184 -0.549,-0.184 -0.732,-0.184 -1.279,0 -1.463,1.098 -1.463,2.928 0,1.645 0.184,2.926 1.463,2.926 1.098,0 1.281,-0.916 1.281,-1.463 l 3.839,0 0,0.001 z"
     style="clip-rule:evenodd;fill:#000000;fill-rule:evenodd;fill-opacity:1" /><path
     inkscape:connector-curvature="0"
     id="path33"
     d="m 157.918,149.049 c 0,0.73 0,2.926 -1.646,2.926 -0.732,0 -1.098,-0.549 -1.463,-0.916 -0.184,-0.547 -0.184,-1.279 -0.184,-2.01 0,-0.549 0,-1.83 0.549,-2.561 0.365,-0.184 0.549,-0.367 1.098,-0.367 1.646,0 1.646,2.195 1.646,2.928 l 0,0 z m -7.682,0 c 0,0.914 0.184,3.107 1.646,4.754 0.914,0.73 1.828,1.098 2.742,1.279 0.549,0.184 1.098,0.184 1.646,0.184 0.914,0 2.012,-0.184 3.109,-0.549 0.914,-0.549 1.828,-1.279 2.377,-2.926 0.365,-0.914 0.365,-1.828 0.365,-2.561 0,-3.84 -1.828,-6.219 -5.852,-6.219 -1.098,0 -2.195,0.184 -3.293,0.732 -2.74,1.464 -2.74,4.39 -2.74,5.306 l 0,0 z"
     style="clip-rule:evenodd;fill:#000000;fill-rule:evenodd;fill-opacity:1" /><path
     inkscape:connector-curvature="0"
     id="path35"
     d="m 172.182,144.842 c 0.365,-0.732 1.463,-1.83 3.293,-1.83 0.549,0 1.463,0 2.193,0.916 0.365,0.365 0.549,0.547 0.732,0.914 0,-0.184 0.182,-0.549 0.549,-0.914 0.549,-0.549 1.463,-0.916 2.561,-0.916 1.096,0 1.828,0.367 2.193,0.732 0.732,0.73 0.732,1.646 0.914,2.377 l 0,5.486 0.914,0 0,3.293 -5.119,0 0,-7.133 c 0,-0.549 0,-1.279 -0.914,-1.279 -0.184,0 -0.549,0.182 -0.732,0.365 -0.365,0.365 -0.365,0.73 -0.365,1.279 l 0,3.475 0.73,0 0,3.293 -4.754,0 0,-6.768 c 0,-0.73 0,-1.645 -0.914,-1.645 -0.367,0 -0.549,0.182 -0.732,0.365 -0.365,0.365 -0.365,0.914 -0.365,1.463 l 0,3.291 0.73,0 0,3.293 -5.852,0 0,-3.293 0.914,0 0,-5.119 -0.914,0 0,-3.293 4.756,0 0.182,1.648 0,0 z"
     style="clip-rule:evenodd;fill:#000000;fill-rule:evenodd;fill-opacity:1" /></svg>