<?xml version="1.0" encoding="UTF-8" standalone="no"?>
<svg
   xmlns:dc="http://purl.org/dc/elements/1.1/"
   xmlns:cc="http://creativecommons.org/ns#"
   xmlns:rdf="http://www.w3.org/1999/02/22-rdf-syntax-ns#"
   xmlns:svg="http://www.w3.org/2000/svg"
   xmlns="http://www.w3.org/2000/svg"
   xmlns:sodipodi="http://sodipodi.sourceforge.net/DTD/sodipodi-0.dtd"
   xmlns:inkscape="http://www.inkscape.org/namespaces/inkscape"
   version="1.1"
   x="0px"
   y="0px"
   viewBox="0 0 100 125"
   enable-background="new 0 0 100 100"
   xml:space="preserve"
   id="svg2"
   inkscape:version="0.91 r13725"
   sodipodi:docname="rings.svg"><metadata
     id="metadata20"><rdf:RDF><cc:Work
         rdf:about=""><dc:format>image/svg+xml</dc:format><dc:type
           rdf:resource="http://purl.org/dc/dcmitype/StillImage" /></cc:Work></rdf:RDF></metadata><defs
     id="defs18" /><sodipodi:namedview
     pagecolor="#ffffff"
     bordercolor="#666666"
     borderopacity="1"
     objecttolerance="10"
     gridtolerance="10"
     guidetolerance="10"
     inkscape:pageopacity="0"
     inkscape:pageshadow="2"
     inkscape:window-width="852"
     inkscape:window-height="480"
     id="namedview16"
     showgrid="false"
     inkscape:zoom="1.888"
     inkscape:cx="50"
     inkscape:cy="62.5"
     inkscape:window-x="0"
     inkscape:window-y="0"
     inkscape:window-maximized="0"
     inkscape:current-layer="svg2" /><g
     id="g4"><path
       d="M68.292,27.16c-5.843,0-11.231,1.898-15.628,5.083c1.195,1.184,2.273,2.482,3.248,3.861c3.512-2.451,7.772-3.9,12.38-3.9   c11.964,0,21.664,9.699,21.664,21.663c0,11.963-9.7,21.662-21.664,21.662c-5.067,0-9.718-1.754-13.408-4.67   c-1.061,1.325-2.242,2.544-3.519,3.663c4.608,3.779,10.503,6.052,16.927,6.052C83.043,80.573,95,68.617,95,53.866   C95,39.116,83.043,27.16,68.292,27.16z"
       id="path6" /><path
       d="M53.782,69.917c2.436-3.134,4.243-6.83,5.133-10.97c1.684-7.846-0.203-15.622-4.554-21.659   c-0.982-1.362-2.081-2.643-3.303-3.808c-2.185-2.084-4.729-3.824-7.569-5.104l1.572-1.517l1.163-1.122l-2.052-5.111l-9.321-2.001   l-4.308,3.687l0.672,1.666l0.842,2.086C19.553,26.139,8.345,34.812,5.612,47.544c-3.159,14.717,6.216,29.184,20.931,32.342   c8.813,1.893,17.525-0.735,23.793-6.291C51.592,72.481,52.742,71.253,53.782,69.917z M50.326,65.971   c-1,1.411-2.167,2.676-3.449,3.805c-5.079,4.471-12.124,6.581-19.247,5.052C15.693,72.266,8.093,60.512,10.657,48.574   c2.36-10.999,12.528-18.307,23.448-17.385c0.931,0.079,1.866,0.21,2.805,0.412c0.921,0.198,1.814,0.457,2.683,0.76   c3.005,1.052,5.654,2.725,7.864,4.821c1.262,1.196,2.373,2.529,3.317,3.978c3.104,4.76,4.397,10.699,3.109,16.694   C53.236,60.869,52,63.604,50.326,65.971z"
       id="path8" /><path
       d="M46.63,38.287c-3.162,4.388-5.044,9.758-5.044,15.58c0,5.682,1.786,10.938,4.811,15.267   c1.319-1.144,2.494-2.445,3.487-3.89c-2.05-3.309-3.254-7.198-3.254-11.377c0-4.297,1.267-8.291,3.425-11.659   C49.087,40.754,47.927,39.446,46.63,38.287z"
       id="path10" /></g></svg>