<?xml version="1.0" encoding="UTF-8" standalone="no"?>
<svg
   xmlns:dc="http://purl.org/dc/elements/1.1/"
   xmlns:cc="http://creativecommons.org/ns#"
   xmlns:rdf="http://www.w3.org/1999/02/22-rdf-syntax-ns#"
   xmlns:svg="http://www.w3.org/2000/svg"
   xmlns="http://www.w3.org/2000/svg"
   viewBox="0 0 322.06668 80.613335"
   height="80.613335"
   width="322.06668"
   xml:space="preserve"
   id="svg2"
   version="1.1"><metadata
     id="metadata8"><rdf:RDF><cc:Work
         rdf:about=""><dc:format>image/svg+xml</dc:format><dc:type
           rdf:resource="http://purl.org/dc/dcmitype/StillImage" /></cc:Work></rdf:RDF></metadata><defs
     id="defs6"><clipPath
       id="clipPath20"
       clipPathUnits="userSpaceOnUse"><path
         id="path18"
         d="M 0,604.57 V 0 h 2415.53 v 604.57 z" /></clipPath></defs><g
     transform="matrix(1.3333333,0,0,-1.3333333,0,80.613333)"
     id="g10"><g
       transform="scale(0.1)"
       id="g12"><g
         id="g14"><g
           clip-path="url(#clipPath20)"
           id="g16"><path
             id="path22"
             style="fill:#ed192d;fill-opacity:1;fill-rule:nonzero;stroke:none"
             d="m 75.293,311.609 c 0,134.786 109.269,244.043 244.062,244.043 134.786,0 244.075,-109.257 244.075,-244.043 C 563.43,176.805 454.141,67.5508 319.355,67.5508 184.562,67.5508 75.293,176.805 75.293,311.609 Z M 319.355,149.504 c 89.532,0 162.098,72.574 162.098,162.105 0,89.524 -72.566,162.082 -162.098,162.082 -89.511,0 -162.089,-72.558 -162.089,-162.082 0,-89.531 72.578,-162.105 162.089,-162.105 z m 0,79.48 c 46.497,0 84.18,37.704 84.18,84.18 0,46.484 -37.683,84.18 -84.18,84.18 -46.464,0 -84.16,-37.696 -84.16,-84.18 0,-46.476 37.696,-84.18 84.16,-84.18 v 0" /><path
             id="path24"
             style="fill:#231f20;fill-opacity:1;fill-rule:nonzero;stroke:none"
             d="M 642.695,486.766 H 920.793 V 416.602 H 825.137 V 135.391 h -84.981 v 280.683 h -97.461 v 70.692" /><path
             id="path26"
             style="fill:#231f20;fill-opacity:1;fill-rule:nonzero;stroke:none"
             d="m 1180.57,486.766 c 0,0 63.94,0 165.04,0 93.82,0 106.81,-64.2 106.81,-101.61 0,-54.328 -46.78,-81.621 -50.94,-82.656 0,0 41.08,-15.332 41.08,-61.855 v -65.5 c 0,-26.258 16.11,-33.524 18.96,-39.754 h -67.05 c -31.97,3.621 -31.44,29.089 -31.19,43.66 v 56.387 c -0.78,13.773 -4.94,29.132 -33.79,29.64 h -67.83 V 135.391 h -81.35 l 0.26,351.375 z m 159.06,-70.692 h -77.97 v -70.156 c 0,0 60.82,-0.215 69.92,0 24.44,0.508 43.32,11.418 43.32,35.34 0,26.027 -16.03,34.816 -35.27,34.816 v 0" /><path
             id="path28"
             style="fill:#231f20;fill-opacity:1;fill-rule:nonzero;stroke:none"
             d="M 1811.11,486.766 V 135.391 h 253.13 v 72.238 h -170.49 v 78.512 h 145.55 v 66.515 h -145.55 v 63.418 h 170.49 v 70.692 h -253.13 v 0" /><path
             id="path30"
             style="fill:#231f20;fill-opacity:1;fill-rule:nonzero;stroke:none"
             d="m 2076.21,416.074 h 100.33 V 135.391 h 83.15 v 280.683 h 101.87 v 70.692 h -285.35 v -70.692" /><path
             id="path32"
             style="fill:#231f20;fill-opacity:1;fill-rule:nonzero;stroke:none"
             d="m 961.523,486.836 h 90.197 l 122.87,-351.445 h -87.41 l -25.38,73.027 H 958.086 L 934.148,135.391 H 847.461 L 961.523,486.836 Z M 1008.63,362.793 978.738,272.09 h 61.612 l -31.72,90.703 v 0" /><path
             id="path34"
             style="fill:#231f20;fill-opacity:1;fill-rule:nonzero;stroke:none"
             d="M 1781.99,331.602 H 1631 v -68.34 h 71.71 c -0.13,-14.063 2.09,-28.106 -14.76,-47.852 -5.74,-6.73 -25.39,-21.808 -52.81,-21.808 -23.13,0 -39.75,6.613 -54.18,18.859 -31.88,27.07 -39.38,77.637 -39.38,104.082 0,33.269 13.24,115.898 94.59,119.285 0,0 54.87,3.547 69.16,-62.625 h 76.13 c -1.54,33.535 -40.54,127.715 -145.29,127.859 -36.15,0.051 -82.03,-10.828 -120.02,-48.874 -27.52,-27.559 -52.28,-73.829 -52.28,-139.024 0,-70.723 26.03,-116.699 49.84,-141.953 41.8,-44.356 83.91,-47.773 105.84,-47.773 17.4,0 50.68,2.585 93.83,31.699 l 11.42,-19.746 h 57.19 v 196.211" /><path
             id="path36"
             style="fill:#231f20;fill-opacity:1;fill-rule:nonzero;stroke:none"
             d="m 2302.17,178.535 c 12.01,0 22.73,-8.652 22.73,-22.101 0,-13.504 -10.72,-22.207 -22.73,-22.207 -12.03,0 -22.76,8.703 -22.76,22.207 0,13.449 10.73,22.101 22.76,22.101 z m 0,-39.582 c 9.18,0 16.7,7.356 16.7,17.481 0,10.07 -7.52,17.343 -16.7,17.343 -9.32,0 -16.72,-7.273 -16.72,-17.343 0,-10.125 7.4,-17.481 16.72,-17.481 z m -8.83,29.902 h 9.36 c 6.21,0 9.72,-1.929 9.72,-7.343 0,-4.547 -2.85,-6.309 -6.52,-6.629 l 6.62,-10.832 h -5.14 l -6.03,10.597 h -3.09 v -10.597 h -4.92 z m 4.92,-10.359 h 4.38 c 2.79,0 4.86,0.43 4.86,3.438 0,2.675 -2.83,3.086 -5.1,3.086 h -4.14 v -6.524" /></g></g></g></g></svg>